<svg xmlns="http://www.w3.org/2000/svg" xmlns:xlink="http://www.w3.org/1999/xlink" width="108" height="48" fill="none"><g clip-path="url(#A)"><g clip-path="url(#B)"><g clip-path="url(#C)"><g fill="#1c4b82"><use xlink:href="#J"/><path d="M106.262 27.816H1.738c-.589 0-1.067.308-1.067.688s.478.688 1.067.688h104.524c.589 0 1.066-.308 1.066-.688s-.477-.688-1.066-.688z"/></g><g clip-path="url(#D)"><g clip-path="url(#E)"><g clip-path="url(#F)"><g clip-path="url(#G)"><path d="M.941 47.8V33.053h4.643c1.806 0 3.207.609 4.205 1.827s1.492 2.995 1.492 5.331c0 2.479-.497 4.364-1.492 5.653S7.39 47.8 5.584 47.8H.941zm2.15-1.956h2.3c1.146 0 2.039-.43 2.678-1.29s.954-2.128.954-3.805v-1.075c0-1.533-.318-2.694-.954-3.482s-1.532-1.182-2.678-1.182h-2.3v10.834zM13.667 47.8V33.053h9.179v1.956h-7.029v4.278H21.9v1.935h-6.083v4.622h7.158V47.8h-9.308zm14.918 0l-4.493-14.746h2.343l3.461 11.995h.086l3.547-11.995h2.107L31.143 47.8h-2.558zm8.594 0V33.053h9.179v1.956h-7.029v4.278h6.083v1.935h-6.083v4.622h7.158V47.8h-9.308zm11.758 0V33.053h2.15v12.747h6.105V47.8h-8.254zm15.52.258c-1.877 0-3.332-.642-4.364-1.926s-1.548-3.183-1.548-5.705.516-4.425 1.548-5.709 2.486-1.922 4.364-1.922 3.332.641 4.364 1.922 1.548 3.187 1.548 5.709-.516 4.424-1.548 5.705-2.486 1.926-4.364 1.926zm0-1.935c1.161 0 2.059-.441 2.696-1.324s.959-2.158.959-3.835v-1.075c0-1.677-.32-2.956-.959-3.839s-1.535-1.32-2.696-1.32-2.061.44-2.7 1.32-.954 2.163-.954 3.839v1.075c0 1.677.318 2.955.954 3.835s1.539 1.324 2.7 1.324zm8.298 1.677V33.053h5.267c1.433 0 2.537.394 3.31 1.182s1.161 1.841 1.161 3.16c0 1.333-.406 2.403-1.217 3.212s-1.893 1.217-3.255 1.217h-3.117V47.8h-2.15zm2.15-7.911h2.988c.717 0 1.285-.226 1.707-.679s.636-1.055.636-1.814c0-.745-.205-1.33-.615-1.754s-.983-.632-1.728-.632h-2.988v4.88zm9.605 7.911V33.053h9.179v1.956h-7.029v4.278h6.083v1.935h-6.083v4.622h7.158V47.8h-9.308zm11.758 0V33.053h5.997c1.433 0 2.534.376 3.302 1.126s1.148 1.754 1.148 3.001c0 .903-.229 1.691-.688 2.365s-1.089 1.154-1.892 1.44l2.924 6.814h-2.386l-2.644-6.406h-3.612V47.8h-2.15zm2.15-8.34h3.698c.716 0 1.279-.208 1.689-.623s.611-.967.611-1.655c0-.674-.194-1.204-.581-1.591s-.953-.58-1.698-.58h-3.719v4.45z" fill="#1c4b82"/></g></g></g></g><g clip-path="url(#H)"><g clip-path="url(#I)"><path d="M47.8 2.748c-.284-.284-.744-.284-1.028 0l-7.226 7.226c-.136.136-.213.321-.213.514a.73.73 0 0 0 .213.514l7.226 7.226c.142.142.328.213.514.213s.372-.071.514-.213c.284-.284.284-.744 0-1.029l-6.712-6.712L47.8 3.777c.284-.284.284-.744 0-1.028zm20.655 7.226l-7.226-7.226c-.284-.284-.744-.284-1.028 0s-.284.744 0 1.028l6.712 6.712L60.2 17.2c-.284.284-.284.745 0 1.029.142.142.328.213.514.213s.372-.071.514-.213l7.226-7.226a.73.73 0 0 0 .213-.514c0-.193-.077-.378-.213-.514zM58.803.009a.73.73 0 0 0-.964.358l-9.001 19.638c-.167.365-.007.796.358.964.098.045.201.066.303.066.276 0 .539-.157.662-.424L59.162.973c.167-.365.007-.796-.358-.964z" fill="#1c4b82"/></g></g></g></g></g><defs><clipPath id="A"><path fill="#fff" transform="translate(.548)" d="M0 0h106.904v48H0z"/></clipPath><clipPath id="B"><path fill="#fff" transform="translate(.671 -.058)" d="M0 0h106.657v48.115H0z"/></clipPath><clipPath id="C"><path fill="#fff" transform="translate(.671 -.058)" d="M0 0h106.657v48.115H0z"/></clipPath><clipPath id="D"><path fill="#fff" transform="translate(.937 32.795)" d="M0 0h106.126v15.262H0z"/></clipPath><clipPath id="E"><path fill="#fff" transform="translate(.937 32.795)" d="M0 0h106.126v15.262H0z"/></clipPath><clipPath id="F"><path fill="#fff" transform="translate(.937 32.795)" d="M0 0h106.126v15.262H0z"/></clipPath><clipPath id="G"><path fill="#fff" transform="translate(.937 32.795)" d="M0 0h106.126v15.262H0z"/></clipPath><clipPath id="H"><path fill="#fff" transform="translate(39.332 -.058)" d="M0 0h29.336v21.092H0z"/></clipPath><clipPath id="I"><path fill="#fff" transform="translate(39.332 -.058)" d="M0 0h29.336v21.092H0z"/></clipPath><path id="J" d="M106.262 24.638H1.738c-.589 0-1.067.308-1.067.688s.478.688 1.067.688h104.524c.589 0 1.066-.308 1.066-.688s-.477-.688-1.066-.688z"/></defs></svg>
